<svg width="40" height="40" viewBox="0 0 40 40" fill="none" xmlns="http://www.w3.org/2000/svg">
<path d="M29.9993 8.33268C30.4414 8.33268 30.8653 8.50828 31.1779 8.82084C31.4904 9.1334 31.666 9.55732 31.666 9.99935V29.9993C31.666 30.4414 31.4904 30.8653 31.1779 31.1779C30.8653 31.4904 30.4414 31.666 29.9993 31.666H9.99935C9.55732 31.666 9.1334 31.4904 8.82084 31.1779C8.50828 30.8653 8.33268 30.4414 8.33268 29.9993V9.99935C8.33268 9.55732 8.50828 9.1334 8.82084 8.82084C9.1334 8.50828 9.55732 8.33268 9.99935 8.33268H29.9993ZM9.99935 6.66602C9.11529 6.66602 8.26745 7.01721 7.64233 7.64233C7.01721 8.26745 6.66602 9.11529 6.66602 9.99935L6.66602 29.9993C6.66602 30.8834 7.01721 31.7312 7.64233 32.3564C8.26745 32.9815 9.11529 33.3327 9.99935 33.3327H29.9993C30.8834 33.3327 31.7312 32.9815 32.3564 32.3564C32.9815 31.7312 33.3327 30.8834 33.3327 29.9993V9.99935C33.3327 9.11529 32.9815 8.26745 32.3564 7.64233C31.7312 7.01721 30.8834 6.66602 29.9993 6.66602H9.99935Z" fill="#D2D2D2"/>
</svg>
