<svg width="37" height="36" viewBox="0 0 37 36" fill="none" xmlns="http://www.w3.org/2000/svg">
<path d="M35.3789 4.36588C35.5891 4.57676 35.7071 4.86238 35.7071 5.16013C35.7071 5.45789 35.5891 5.74351 35.3789 5.95438L33.0321 8.30338L28.5321 3.80338L30.8789 1.45438C31.0898 1.24348 31.3759 1.125 31.6742 1.125C31.9725 1.125 32.2586 1.24348 32.4696 1.45438L35.3789 4.36363V4.36588ZM31.4414 9.89188L26.9414 5.39188L11.6121 20.7234C11.4883 20.8472 11.3951 20.9982 11.3399 21.1644L9.52861 26.5959C9.49576 26.6949 9.4911 26.8011 9.51514 26.9026C9.53918 27.0041 9.59098 27.097 9.66475 27.1707C9.73852 27.2445 9.83135 27.2963 9.93287 27.3204C10.0344 27.3444 10.1406 27.3397 10.2396 27.3069L15.6711 25.4956C15.8371 25.4411 15.9881 25.3487 16.1121 25.2256L31.4414 9.89188Z" fill="#141D3E"/>
<path fill-rule="evenodd" clip-rule="evenodd" d="M2.75 30.375C2.75 31.2701 3.10558 32.1286 3.73851 32.7615C4.37145 33.3944 5.22989 33.75 6.125 33.75H30.875C31.7701 33.75 32.6286 33.3944 33.2615 32.7615C33.8944 32.1286 34.25 31.2701 34.25 30.375V16.875C34.25 16.5766 34.1315 16.2905 33.9205 16.0795C33.7095 15.8685 33.4234 15.75 33.125 15.75C32.8266 15.75 32.5405 15.8685 32.3295 16.0795C32.1185 16.2905 32 16.5766 32 16.875V30.375C32 30.6734 31.8815 30.9595 31.6705 31.1705C31.4595 31.3815 31.1734 31.5 30.875 31.5H6.125C5.82663 31.5 5.54048 31.3815 5.32951 31.1705C5.11853 30.9595 5 30.6734 5 30.375V5.625C5 5.32663 5.11853 5.04048 5.32951 4.82951C5.54048 4.61853 5.82663 4.5 6.125 4.5H20.75C21.0484 4.5 21.3345 4.38147 21.5455 4.1705C21.7565 3.95952 21.875 3.67337 21.875 3.375C21.875 3.07663 21.7565 2.79048 21.5455 2.5795C21.3345 2.36853 21.0484 2.25 20.75 2.25H6.125C5.22989 2.25 4.37145 2.60558 3.73851 3.23851C3.10558 3.87145 2.75 4.72989 2.75 5.625V30.375Z" fill="#141D3E"/>
</svg>
