<svg width="40" height="40" viewBox="0 0 40 40" fill="none" xmlns="http://www.w3.org/2000/svg">
<path d="M10.0003 6.66602C9.11627 6.66602 8.26842 7.01721 7.6433 7.64233C7.01818 8.26745 6.66699 9.11529 6.66699 9.99935L6.66699 29.9993C6.66699 30.8834 7.01818 31.7312 7.6433 32.3564C8.26842 32.9815 9.11627 33.3327 10.0003 33.3327H30.0003C30.8844 33.3327 31.7322 32.9815 32.3573 32.3564C32.9825 31.7312 33.3337 30.8834 33.3337 29.9993V9.99935C33.3337 9.11529 32.9825 8.26745 32.3573 7.64233C31.7322 7.01721 30.8844 6.66602 30.0003 6.66602H10.0003ZM26.717 14.9493C26.9485 15.1806 27.0801 15.4934 27.0835 15.8206C27.0869 16.1478 26.9619 16.4633 26.7353 16.6993L20.082 25.016C19.9676 25.1392 19.8296 25.238 19.6762 25.3066C19.5228 25.3752 19.3571 25.4122 19.1891 25.4153C19.021 25.4184 18.8541 25.3876 18.6983 25.3247C18.5424 25.2619 18.4008 25.1682 18.282 25.0493L13.8737 20.6393C13.7508 20.5249 13.6523 20.3869 13.584 20.2336C13.5157 20.0802 13.479 19.9147 13.476 19.7469C13.473 19.579 13.5039 19.4123 13.5668 19.2567C13.6297 19.101 13.7232 18.9596 13.8419 18.841C13.9606 18.7223 14.102 18.6287 14.2577 18.5658C14.4133 18.5029 14.58 18.4721 14.7479 18.475C14.9157 18.478 15.0812 18.5147 15.2346 18.583C15.3879 18.6514 15.5259 18.7499 15.6403 18.8727L19.1303 22.361L24.9187 14.986C25.0328 14.8626 25.1706 14.7635 25.3239 14.6946C25.4772 14.6257 25.6428 14.5885 25.8109 14.585C25.9789 14.5816 26.1459 14.6121 26.3019 14.6747C26.4579 14.7373 26.5996 14.8307 26.7187 14.9493H26.717Z" fill="#08B7E5"/>
</svg>
