<svg width="50" height="51" viewBox="0 0 50 51" fill="none" xmlns="http://www.w3.org/2000/svg">
<g clip-path="url(#clip0_1134_11086)">
<path d="M24.7256 0.500743C19.1618 0.536407 13.6613 2.51978 9.33984 6.00768L14.0616 11.4898C18.0468 8.3449 23.4163 7.06332 28.3965 8.0534C31.1335 8.57993 33.7378 9.7817 35.9351 11.4898L40.6569 6.00768C36.187 2.40075 30.4809 0.414499 24.7256 0.500743Z" fill="#FA9C1E"/>
<path d="M7.80233 7.3548C2.82701 12.0289 -0.090183 18.8235 0.00212701 25.6773C0.00507701 32.7915 3.25035 39.7798 8.6398 44.4019C13.6216 48.759 20.3969 50.9785 27.0116 50.417C34.1791 49.8833 40.9822 46.055 45.188 40.2385C49.2817 34.7111 50.8856 27.422 49.5267 20.6627C48.5277 15.4885 45.815 10.6931 41.9569 7.12891L37.2351 12.611C41.0397 16.1972 43.1172 21.4908 42.7255 26.7131C42.5542 29.3005 41.8027 31.854 40.5326 34.1264L30.91 24.8315L26.055 14.3663L26.0477 30.2145L35.7723 39.6251C31.4388 42.9919 25.4929 44.1086 20.2241 42.6162C18.0788 42.0178 16.0473 41.0137 14.2817 39.6664L24.0724 30.2145C24.0554 25.0619 24.1322 19.4998 24.0724 14.3493L19.2101 24.8315L9.50482 34.2035C6.54395 29.0348 6.47312 22.3526 9.323 17.1262C10.2139 15.4519 11.3931 13.9239 12.761 12.611L8.03924 7.12891C7.96027 7.20421 7.8813 7.2795 7.80233 7.3548Z" fill="#4A4C4E"/>
</g>
<defs>
<clipPath id="clip0_1134_11086">
<rect width="50" height="50" fill="white" transform="translate(0 0.5)"/>
</clipPath>
</defs>
</svg>
