<svg width="36" height="36" viewBox="0 0 36 36" fill="none" xmlns="http://www.w3.org/2000/svg">
<path d="M17.5 17.5C19.2902 17.5 21.0071 16.7888 22.273 15.523C23.5388 14.2571 24.25 12.5402 24.25 10.75C24.25 8.95979 23.5388 7.2429 22.273 5.97703C21.0071 4.71116 19.2902 4 17.5 4C15.7098 4 13.9929 4.71116 12.727 5.97703C11.4612 7.2429 10.75 8.95979 10.75 10.75C10.75 12.5402 11.4612 14.2571 12.727 15.523C13.9929 16.7888 15.7098 17.5 17.5 17.5ZM6.25 31C6.25 31 4 31 4 28.75C4 26.5 6.25 19.75 17.5 19.75C28.75 19.75 31 26.5 31 28.75C31 31 28.75 31 28.75 31H6.25Z" fill="#141D3E"/>
</svg>
