<svg width="50" height="51" viewBox="0 0 50 51" fill="none" xmlns="http://www.w3.org/2000/svg">
<path d="M0.828011 4.93307C0.661978 4.73763 0.465725 4.3662 0.157934 4.54997C-0.00324396 4.62873 0.00291285 4.82514 0 4.97682C0.0038838 11.3922 0.00182582 17.8085 0.00182582 24.2239C-0.0126765 24.5749 0.103596 24.9188 0.328648 25.1884C5.63586 31.8293 10.9399 38.4722 16.2471 45.1122C16.4986 45.4321 16.8908 45.6362 17.3006 45.6314C22.4155 45.6314 27.5317 45.6353 32.6466 45.6294C32.9428 45.6732 33.1089 45.2658 32.8895 45.0752C22.2071 31.6913 11.5114 18.317 0.828011 4.93307Z" fill="#FF4655"/>
<path d="M49.9947 4.86792C50.0267 4.63845 49.7859 4.43621 49.5674 4.51886C49.4849 4.55872 49.4173 4.61706 49.3639 4.6929C42.3138 13.5186 35.2615 22.3434 28.2154 31.1711C27.994 31.3665 28.1646 31.772 28.4646 31.7253C33.5456 31.7321 38.6274 31.7243 43.7084 31.7292C44.1482 31.7515 44.5888 31.5581 44.8577 31.208C46.4705 29.1885 48.0852 27.169 49.698 25.1485C49.9339 24.8627 50.0129 24.4864 49.9983 24.1227C49.9935 17.7045 50.0024 11.2862 49.9947 4.86792Z" fill="#FF4655"/>
</svg>
