<svg width="50" height="50" viewBox="0 0 50 50" fill="none" xmlns="http://www.w3.org/2000/svg">
<mask id="mask0_518_18666" style="mask-type:luminance" maskUnits="userSpaceOnUse" x="0" y="0" width="50" height="50">
<path d="M50 0H0V50H50V0Z" fill="white"/>
</mask>
<g mask="url(#mask0_518_18666)">
<path d="M0 24.9419C0 11.1628 11.1628 0 24.9419 0C38.7209 0 49.8837 11.1628 49.8837 24.9419C49.8837 38.7209 38.7209 49.8837 24.9419 49.8837C11.1628 49.8547 0 38.6919 0 24.9419Z" fill="#5865F2"/>
<path d="M36.1627 14.7966C34.0406 13.8373 31.8313 13.1396 29.5348 12.7617C29.2441 13.285 28.9243 13.9536 28.6918 14.5059C26.2499 14.128 23.779 14.128 21.3371 14.5059C21.0755 13.8954 20.7848 13.314 20.465 12.7617C18.1685 13.1396 15.9301 13.8373 13.8371 14.8257C9.65107 21.0757 8.51735 27.1513 9.06968 33.1687C11.5406 35.0001 14.2732 36.3954 17.2092 37.2675C17.8778 36.3664 18.4592 35.4361 18.9534 34.4478C17.9941 34.0989 17.0929 33.6629 16.2208 33.1396C16.4534 32.9652 16.6569 32.7908 16.8894 32.6164C22.0348 35.0582 28.0232 35.0582 33.1685 32.6164C33.4011 32.7908 33.6046 32.9652 33.8371 33.1396C32.965 33.6629 32.0348 34.0989 31.0755 34.4478C31.5697 35.4361 32.1511 36.3664 32.8197 37.2675C35.7557 36.3664 38.5174 35.0001 40.9592 33.1687C41.5988 26.192 39.7964 20.1454 36.1627 14.7966ZM19.6511 29.4478C18.0522 29.4478 16.7732 27.9943 16.7732 26.221C16.7732 24.4478 18.0522 22.9652 19.6511 22.9652C21.279 22.9652 22.5581 24.4187 22.5581 26.221C22.529 27.9943 21.279 29.4478 19.6511 29.4478ZM30.3487 29.4478C28.7499 29.4478 27.4708 27.9943 27.4708 26.221C27.4708 24.4478 28.7499 22.9652 30.3487 22.9652C31.9767 22.9652 33.2557 24.4187 33.2267 26.221C33.1976 28.0233 31.9476 29.4478 30.3487 29.4478Z" fill="white"/>
</g>
</svg>
