<svg width="40" height="40" viewBox="0 0 40 40" fill="none" xmlns="http://www.w3.org/2000/svg">
<path fill-rule="evenodd" clip-rule="evenodd" d="M10.4713 15.2098C10.5409 15.1433 10.6237 15.0905 10.7147 15.0545C10.8058 15.0185 10.9035 15 11.0021 15C11.1008 15 11.1984 15.0185 11.2895 15.0545C11.3806 15.0905 11.4633 15.1433 11.533 15.2098L19.9998 23.2749L28.4667 15.2098C28.5364 15.1434 28.6191 15.0907 28.7102 15.0548C28.8013 15.0189 28.8989 15.0004 28.9975 15.0004C29.0961 15.0004 29.1937 15.0189 29.2848 15.0548C29.3759 15.0907 29.4587 15.1434 29.5284 15.2098C29.5981 15.2762 29.6534 15.355 29.6911 15.4418C29.7289 15.5285 29.7483 15.6215 29.7483 15.7154C29.7483 15.8093 29.7289 15.9023 29.6911 15.989C29.6534 16.0757 29.5981 16.1546 29.5284 16.221L20.5307 24.7902C20.461 24.8567 20.3783 24.9095 20.2872 24.9455C20.1961 24.9815 20.0985 25 19.9998 25C19.9012 25 19.8035 24.9815 19.7125 24.9455C19.6214 24.9095 19.5386 24.8567 19.469 24.7902L10.4713 16.221C10.4014 16.1546 10.346 16.0758 10.3082 15.9891C10.2704 15.9023 10.251 15.8093 10.251 15.7154C10.251 15.6215 10.2704 15.5284 10.3082 15.4417C10.346 15.3549 10.4014 15.2761 10.4713 15.2098V15.2098Z" fill="#3B3C39"/>
</svg>
