<svg width="36" height="36" viewBox="0 0 36 36" fill="none" xmlns="http://www.w3.org/2000/svg">
<path d="M5.62502 17.9999C5.62468 15.8275 6.19624 13.6933 7.28223 11.8118C8.36822 9.93026 9.93039 8.36779 11.8117 7.28143C13.693 6.19507 15.8271 5.6231 17.9995 5.62301C20.172 5.62293 22.3061 6.19473 24.1875 7.28095C24.4458 7.42778 24.7516 7.4665 25.0383 7.38866C25.325 7.31083 25.5693 7.12275 25.7178 6.86548C25.8664 6.6082 25.9071 6.30262 25.8312 6.01541C25.7553 5.72821 25.5688 5.48269 25.3125 5.33245C22.5245 3.72275 19.2832 3.07799 16.0913 3.49816C12.8995 3.91832 9.93544 5.37992 7.65892 7.6563C5.3824 9.93267 3.9206 12.8966 3.50023 16.0884C3.07986 19.2802 3.72442 22.5216 5.33393 25.3098C6.94344 28.0979 9.42797 30.2771 12.4022 31.5094C15.3764 32.7416 18.6741 32.958 21.7839 32.1251C24.8937 31.2922 27.6417 29.4564 29.6018 26.9025C31.5619 24.3486 32.6246 21.2193 32.625 17.9999C32.625 17.7016 32.5065 17.4154 32.2955 17.2045C32.0845 16.9935 31.7984 16.8749 31.5 16.8749C31.2017 16.8749 30.9155 16.9935 30.7045 17.2045C30.4935 17.4154 30.375 17.7016 30.375 17.9999C30.375 21.282 29.0712 24.4296 26.7505 26.7504C24.4297 29.0712 21.2821 30.3749 18 30.3749C14.718 30.3749 11.5703 29.0712 9.24957 26.7504C6.92881 24.4296 5.62502 21.282 5.62502 17.9999Z" fill="white"/>
<path d="M34.5469 7.54597C34.6515 7.44137 34.7345 7.31719 34.7911 7.18053C34.8477 7.04387 34.8769 6.89739 34.8769 6.74947C34.8769 6.60154 34.8477 6.45507 34.7911 6.31841C34.7345 6.18174 34.6515 6.05757 34.5469 5.95297C34.4423 5.84837 34.3182 5.7654 34.1815 5.70879C34.0448 5.65218 33.8984 5.62305 33.7504 5.62305C33.6025 5.62305 33.456 5.65218 33.3194 5.70879C33.1827 5.7654 33.0585 5.84837 32.9539 5.95297L18.0004 20.9087L12.0469 14.953C11.9423 14.8484 11.8182 14.7654 11.6815 14.7088C11.5448 14.6522 11.3984 14.623 11.2504 14.623C11.1025 14.623 10.956 14.6522 10.8194 14.7088C10.6827 14.7654 10.5585 14.8484 10.4539 14.953C10.3493 15.0576 10.2664 15.1817 10.2098 15.3184C10.1532 15.4551 10.124 15.6015 10.124 15.7495C10.124 15.8974 10.1532 16.0439 10.2098 16.1805C10.2664 16.3172 10.3493 16.4414 10.4539 16.546L17.2039 23.296C17.3084 23.4007 17.4326 23.4839 17.5693 23.5406C17.7059 23.5973 17.8525 23.6265 18.0004 23.6265C18.1484 23.6265 18.2949 23.5973 18.4316 23.5406C18.5683 23.4839 18.6924 23.4007 18.7969 23.296L34.5469 7.54597Z" fill="white"/>
</svg>
