<svg width="28" height="28" viewBox="0 0 28 28" fill="none" xmlns="http://www.w3.org/2000/svg">
<g clip-path="url(#clip0_1134_11455)">
<path d="M19.0625 2.1875C18.1674 2.1875 17.309 2.54308 16.676 3.17601C16.0431 3.80895 15.6875 4.66739 15.6875 5.5625V12.3125C16.5826 12.3125 17.441 12.6681 18.074 13.301C18.7069 13.9339 19.0625 14.7924 19.0625 15.6875V24.125C19.0625 25.0201 18.7069 25.8785 18.074 26.5115C17.441 27.1444 16.5826 27.5 15.6875 27.5H5.5625C4.66739 27.5 3.80895 27.1444 3.17601 26.5115C2.54308 25.8785 2.1875 25.0201 2.1875 24.125V15.6875C2.1875 14.7924 2.54308 13.9339 3.17601 13.301C3.80895 12.6681 4.66739 12.3125 5.5625 12.3125H14V5.5625C14 4.21984 14.5334 2.93217 15.4828 1.98277C16.4322 1.03337 17.7198 0.5 19.0625 0.5C20.4052 0.5 21.6928 1.03337 22.6422 1.98277C23.5916 2.93217 24.125 4.21984 24.125 5.5625V12.3125C24.125 12.5363 24.0361 12.7509 23.8779 12.9091C23.7196 13.0674 23.505 13.1562 23.2812 13.1562C23.0575 13.1562 22.8429 13.0674 22.6846 12.9091C22.5264 12.7509 22.4375 12.5363 22.4375 12.3125V5.5625C22.4375 4.66739 22.0819 3.80895 21.449 3.17601C20.816 2.54308 19.9576 2.1875 19.0625 2.1875Z" fill="#141D3E"/>
</g>
<defs>
<clipPath id="clip0_1134_11455">
<rect width="27" height="27" fill="white" transform="translate(0.5 0.5)"/>
</clipPath>
</defs>
</svg>
