<svg width="27" height="28" viewBox="0 0 27 28" fill="none" xmlns="http://www.w3.org/2000/svg">
<g clip-path="url(#clip0_1134_11005)">
<path d="M18.5625 2.1875C17.6674 2.1875 16.809 2.54308 16.176 3.17601C15.5431 3.80895 15.1875 4.66739 15.1875 5.5625V12.3125C16.0826 12.3125 16.941 12.6681 17.574 13.301C18.2069 13.9339 18.5625 14.7924 18.5625 15.6875V24.125C18.5625 25.0201 18.2069 25.8785 17.574 26.5115C16.941 27.1444 16.0826 27.5 15.1875 27.5H5.0625C4.16739 27.5 3.30895 27.1444 2.67601 26.5115C2.04308 25.8785 1.6875 25.0201 1.6875 24.125V15.6875C1.6875 14.7924 2.04308 13.9339 2.67601 13.301C3.30895 12.6681 4.16739 12.3125 5.0625 12.3125H13.5V5.5625C13.5 4.21984 14.0334 2.93217 14.9828 1.98277C15.9322 1.03337 17.2198 0.5 18.5625 0.5C19.9052 0.5 21.1928 1.03337 22.1422 1.98277C23.0916 2.93217 23.625 4.21984 23.625 5.5625V12.3125C23.625 12.5363 23.5361 12.7509 23.3779 12.9091C23.2196 13.0674 23.005 13.1562 22.7812 13.1562C22.5575 13.1562 22.3429 13.0674 22.1846 12.9091C22.0264 12.7509 21.9375 12.5363 21.9375 12.3125V5.5625C21.9375 4.66739 21.5819 3.80895 20.949 3.17601C20.316 2.54308 19.4576 2.1875 18.5625 2.1875Z" fill="#999999"/>
</g>
<defs>
<clipPath id="clip0_1134_11005">
<rect width="27" height="27" fill="white" transform="translate(0 0.5)"/>
</clipPath>
</defs>
</svg>
