<svg width="40" height="40" viewBox="0 0 40 40" fill="none" xmlns="http://www.w3.org/2000/svg">
<path d="M30.0003 8.33268C30.4424 8.33268 30.8663 8.50828 31.1788 8.82084C31.4914 9.1334 31.667 9.55732 31.667 9.99935V29.9993C31.667 30.4414 31.4914 30.8653 31.1788 31.1779C30.8663 31.4904 30.4424 31.666 30.0003 31.666H10.0003C9.5583 31.666 9.13437 31.4904 8.82181 31.1779C8.50925 30.8653 8.33366 30.4414 8.33366 29.9993V9.99935C8.33366 9.55732 8.50925 9.1334 8.82181 8.82084C9.13437 8.50828 9.5583 8.33268 10.0003 8.33268H30.0003ZM10.0003 6.66602C9.11627 6.66602 8.26842 7.01721 7.6433 7.64233C7.01818 8.26745 6.66699 9.11529 6.66699 9.99935L6.66699 29.9993C6.66699 30.8834 7.01818 31.7312 7.6433 32.3564C8.26842 32.9815 9.11627 33.3327 10.0003 33.3327H30.0003C30.8844 33.3327 31.7322 32.9815 32.3573 32.3564C32.9825 31.7312 33.3337 30.8834 33.3337 29.9993V9.99935C33.3337 9.11529 32.9825 8.26745 32.3573 7.64233C31.7322 7.01721 30.8844 6.66602 30.0003 6.66602H10.0003Z" fill="#08B7E5"/>
<path d="M24.9501 14.9501C25.1834 14.7189 25.4982 14.5888 25.8267 14.5879C26.1551 14.587 26.4707 14.7154 26.7052 14.9453C26.9397 15.1752 27.0743 15.4882 27.0799 15.8166C27.0855 16.145 26.9617 16.4624 26.7351 16.7001L20.0818 25.0168C19.9674 25.14 19.8294 25.2388 19.676 25.3074C19.5226 25.376 19.3569 25.413 19.1889 25.4161C19.0208 25.4192 18.8539 25.3884 18.698 25.3255C18.5422 25.2627 18.4006 25.169 18.2818 25.0501L13.8734 20.6401C13.7506 20.5257 13.6521 20.3877 13.5838 20.2344C13.5155 20.081 13.4787 19.9155 13.4758 19.7477C13.4728 19.5798 13.5037 19.4131 13.5666 19.2575C13.6294 19.1018 13.723 18.9604 13.8417 18.8417C13.9604 18.723 14.1018 18.6295 14.2574 18.5666C14.4131 18.5037 14.5798 18.4729 14.7476 18.4758C14.9155 18.4788 15.081 18.5155 15.2343 18.5838C15.3877 18.6522 15.5257 18.7507 15.6401 18.8735L19.1301 22.3618L24.9184 14.9868C24.9288 14.9739 24.9382 14.9616 24.9501 14.9501Z" fill="#08B7E5"/>
</svg>
