<svg width="40" height="40" viewBox="0 0 40 40" fill="none" xmlns="http://www.w3.org/2000/svg">
<path d="M25.6139 23.5152C27.0663 21.5332 27.7168 19.0759 27.4353 16.6349C27.1538 14.1939 25.961 11.9492 24.0955 10.3499C22.23 8.75056 19.8295 7.91458 17.3741 8.00919C14.9187 8.1038 12.5896 9.12202 10.8528 10.8601C9.11589 12.5983 8.09933 14.9281 8.00648 17.3835C7.91363 19.839 8.75132 22.2389 10.352 24.1032C11.9526 25.9676 14.1982 27.1588 16.6394 27.4386C19.0806 27.7183 21.5374 27.066 23.5184 25.6122H23.5169C23.5619 25.6722 23.6099 25.7292 23.6639 25.7847L29.4389 31.5597C29.7201 31.8411 30.1017 31.9993 30.4996 31.9995C30.8975 31.9996 31.2791 31.8417 31.5606 31.5604C31.8421 31.2792 32.0003 30.8976 32.0004 30.4997C32.0006 30.1018 31.8426 29.7201 31.5614 29.4387L25.7864 23.6637C25.7327 23.6094 25.6751 23.5607 25.6139 23.5152ZM26.0009 17.7492C26.0009 18.8326 25.7875 19.9054 25.3729 20.9063C24.9583 21.9072 24.3506 22.8167 23.5845 23.5828C22.8184 24.3489 21.9089 24.9566 20.908 25.3712C19.9071 25.7858 18.8343 25.9992 17.7509 25.9992C16.6675 25.9992 15.5947 25.7858 14.5937 25.3712C13.5928 24.9566 12.6833 24.3489 11.9172 23.5828C11.1511 22.8167 10.5435 21.9072 10.1289 20.9063C9.71425 19.9054 9.50086 18.8326 9.50086 17.7492C9.50086 15.5611 10.3701 13.4627 11.9172 11.9155C13.4644 10.3684 15.5628 9.49917 17.7509 9.49917C19.9389 9.49917 22.0373 10.3684 23.5845 11.9155C25.1317 13.4627 26.0009 15.5611 26.0009 17.7492Z" fill="#141D3E"/>
</svg>
