<svg width="44" height="48" viewBox="0 0 44 48" fill="none" xmlns="http://www.w3.org/2000/svg">
<g clip-path="url(#clip0_518_18675)">
<path d="M19.3437 16.1258C19.7664 16.1258 20.1718 16.2938 20.4707 16.5928C20.7696 16.8918 20.9375 17.2973 20.9375 17.7201V31.0063C20.9375 31.2882 21.0494 31.5585 21.2487 31.7579C21.4479 31.9572 21.7182 32.0692 22 32.0692C22.2818 32.0692 22.552 31.9572 22.7513 31.7579C22.9505 31.5585 23.0625 31.2882 23.0625 31.0063V25.6217L23.2452 25.6132C23.9189 25.5877 24.5989 25.5962 24.9792 25.6706C25.264 25.728 25.604 25.8746 25.9312 26.0575C26.0949 26.1467 26.25 26.37 26.25 26.725V31.0063C26.25 31.2882 26.3619 31.5585 26.5612 31.7579C26.7604 31.9572 27.0307 32.0692 27.3125 32.0692C27.5943 32.0692 27.8645 31.9572 28.0638 31.7579C28.263 31.5585 28.375 31.2882 28.375 31.0063V27.6794L28.6002 27.6582C29.2717 27.6072 29.8412 27.6369 30.1047 27.7432C30.3555 27.841 30.7422 28.1833 31.1375 28.6573C31.3096 28.8614 31.4562 29.0612 31.5625 29.2079V32.0692C31.5625 32.3511 31.6744 32.6214 31.8737 32.8208C32.0729 33.0201 32.3432 33.1321 32.625 33.1321C32.9068 33.1321 33.177 33.0201 33.3763 32.8208C33.5755 32.6214 33.6875 32.3511 33.6875 32.0692V29.9434H34.4142C34.7112 29.9434 35.0049 30.0057 35.2763 30.1262C35.5478 30.2467 35.791 30.4228 35.9902 30.6432C36.1894 30.8635 36.3403 31.1231 36.433 31.4054C36.5257 31.6876 36.5583 31.9862 36.5286 32.2818L35.9527 38.0533C35.8784 38.795 35.6488 39.5127 35.2791 40.1599L32.3147 45.3511C32.2218 45.5138 32.0876 45.649 31.9257 45.7431C31.7637 45.8372 31.5798 45.8867 31.3925 45.8868H18.0007C17.8036 45.8868 17.6103 45.8319 17.4426 45.7283C17.2748 45.6247 17.1392 45.4764 17.0509 45.3001L14.4329 40.06L9.09486 31.1636C8.95771 30.9336 8.90925 30.6614 8.95857 30.3981C9.0079 30.1349 9.15161 29.8987 9.36272 29.734C9.57382 29.5693 9.83779 29.4874 10.105 29.5036C10.3723 29.5199 10.6244 29.6332 10.814 29.8222L15.9352 34.9454C16.0837 35.0943 16.273 35.1958 16.4792 35.237C16.6853 35.2782 16.8991 35.2574 17.0934 35.177C17.2877 35.0967 17.4538 34.9605 17.5706 34.7857C17.6875 34.6109 17.7499 34.4053 17.75 34.195V17.7201C17.75 17.2973 17.9179 16.8918 18.2168 16.5928C18.5157 16.2938 18.921 16.1258 19.3437 16.1258ZM23.0625 23.4938V17.7201C23.0625 16.7335 22.6707 15.7873 21.9733 15.0896C21.2759 14.3919 20.33 14 19.3437 14C18.3575 14 17.4116 14.3919 16.7142 15.0896C16.0168 15.7873 15.625 16.7335 15.625 17.7201V31.6292L12.3164 28.3193C11.7597 27.7655 11.0201 27.4339 10.2364 27.3869C9.45272 27.3398 8.67879 27.5804 8.05988 28.0637C7.44096 28.5469 7.01959 29.2394 6.87485 30.0113C6.7301 30.7833 6.87194 31.5815 7.27373 32.2563L12.5671 41.0847L15.149 46.2503C15.4138 46.78 15.8209 47.2255 16.3246 47.5367C16.8283 47.848 17.4087 48.0128 18.0007 48.0126H31.3925C31.9543 48.0124 32.5061 47.8637 32.992 47.5814C33.4779 47.2992 33.8806 46.8935 34.1592 46.4055L37.1236 41.2165C37.6418 40.3094 37.9633 39.3033 38.0671 38.2637L38.643 32.4922C38.7021 31.9012 38.6367 31.3043 38.4511 30.7401C38.2654 30.1759 37.9637 29.6568 37.5653 29.2164C37.1669 28.776 36.6806 28.424 36.1379 28.1831C35.5952 27.9421 35.008 27.8176 34.4142 27.8176H33.1796C33.0469 27.6377 32.9087 27.4618 32.7652 27.2904C32.3594 26.8036 31.6815 26.083 30.8952 25.7684C30.1217 25.458 29.0975 25.4878 28.4345 25.5388L28.154 25.5643C27.9277 24.9849 27.507 24.5024 26.964 24.1995C26.4751 23.9175 25.9464 23.7111 25.3957 23.5873C24.737 23.4555 23.8254 23.464 23.1645 23.4895L23.0625 23.4938Z" fill="url(#paint0_linear_518_18675)"/>
<path d="M19.2983 2C19.2983 4.53841 19.2983 5.96159 19.2983 8.5" stroke="url(#paint1_linear_518_18675)" stroke-width="2.5" stroke-linecap="round" stroke-linejoin="round"/>
<path d="M31.5967 8C29.8018 9.79493 28.7954 10.8013 27.0005 12.5962" stroke="url(#paint2_linear_518_18675)" stroke-width="2.5" stroke-linecap="round" stroke-linejoin="round"/>
<path d="M7 8C8.79493 9.79493 9.80127 10.8013 11.5962 12.5962" stroke="url(#paint3_linear_518_18675)" stroke-width="2.5" stroke-linecap="round" stroke-linejoin="round"/>
</g>
<defs>
<linearGradient id="paint0_linear_518_18675" x1="38.6641" y1="31.4211" x2="6.81958" y2="31.4211" gradientUnits="userSpaceOnUse">
<stop offset="0.0001" stop-color="#00E6E6"/>
<stop offset="0.401042" stop-color="#0FEAF8"/>
<stop offset="0.609375" stop-color="#0AD8F5"/>
<stop offset="1" stop-color="#00B6F0"/>
</linearGradient>
<linearGradient id="paint1_linear_518_18675" x1="20.2983" y1="5.32927" x2="19.2983" y2="5.32927" gradientUnits="userSpaceOnUse">
<stop offset="0.0001" stop-color="#00E6E6"/>
<stop offset="0.401042" stop-color="#0FEAF8"/>
<stop offset="0.609375" stop-color="#0AD8F5"/>
<stop offset="1" stop-color="#00B6F0"/>
</linearGradient>
<linearGradient id="paint2_linear_518_18675" x1="29.9496" y1="11.0613" x2="29.2425" y2="10.3541" gradientUnits="userSpaceOnUse">
<stop offset="0.0001" stop-color="#00E6E6"/>
<stop offset="0.401042" stop-color="#0FEAF8"/>
<stop offset="0.609375" stop-color="#0AD8F5"/>
<stop offset="1" stop-color="#00B6F0"/>
</linearGradient>
<linearGradient id="paint3_linear_518_18675" x1="10.0613" y1="9.64704" x2="9.35415" y2="10.3541" gradientUnits="userSpaceOnUse">
<stop offset="0.0001" stop-color="#00E6E6"/>
<stop offset="0.401042" stop-color="#0FEAF8"/>
<stop offset="0.609375" stop-color="#0AD8F5"/>
<stop offset="1" stop-color="#00B6F0"/>
</linearGradient>
<clipPath id="clip0_518_18675">
<rect width="44" height="48" fill="white"/>
</clipPath>
</defs>
</svg>
