<svg width="32" height="32" viewBox="0 0 32 32" fill="none" xmlns="http://www.w3.org/2000/svg">
<g clip-path="url(#clip0_1106_5799)">
<path d="M16 2C13.3478 2 10.8043 3.05357 8.92893 4.92893C7.05357 6.8043 6 9.34784 6 12V14H8C8.53043 14 9.03914 14.2107 9.41421 14.5858C9.78929 14.9609 10 15.4696 10 16V22C10 22.5304 9.78929 23.0391 9.41421 23.4142C9.03914 23.7893 8.53043 24 8 24H6C5.46957 24 4.96086 23.7893 4.58579 23.4142C4.21071 23.0391 4 22.5304 4 22V12C4 10.4241 4.31039 8.86371 4.91345 7.4078C5.5165 5.95189 6.40042 4.62902 7.51472 3.51472C8.62902 2.40042 9.95189 1.5165 11.4078 0.913446C12.8637 0.310389 14.4241 0 16 0C17.5759 0 19.1363 0.310389 20.5922 0.913446C22.0481 1.5165 23.371 2.40042 24.4853 3.51472C25.5996 4.62902 26.4835 5.95189 27.0866 7.4078C27.6896 8.86371 28 10.4241 28 12V24C28 25.3261 27.4732 26.5979 26.5355 27.5355C25.5979 28.4732 24.3261 29 23 29H18.732C18.5565 29.304 18.304 29.5565 18 29.732C17.6959 29.9076 17.3511 30 17 30H15C14.4696 30 13.9609 29.7893 13.5858 29.4142C13.2107 29.0391 13 28.5304 13 28C13 27.4696 13.2107 26.9609 13.5858 26.5858C13.9609 26.2107 14.4696 26 15 26H17C17.3511 26 17.6959 26.0924 18 26.268C18.304 26.4435 18.5565 26.696 18.732 27H23C23.7956 27 24.5587 26.6839 25.1213 26.1213C25.6839 25.5587 26 24.7956 26 24H24C23.4696 24 22.9609 23.7893 22.5858 23.4142C22.2107 23.0391 22 22.5304 22 22V16C22 15.4696 22.2107 14.9609 22.5858 14.5858C22.9609 14.2107 23.4696 14 24 14H26V12C26 10.6868 25.7413 9.38642 25.2388 8.17317C24.7362 6.95991 23.9997 5.85752 23.0711 4.92893C22.1425 4.00035 21.0401 3.26375 19.8268 2.7612C18.6136 2.25866 17.3132 2 16 2Z" fill="#141D3E"/>
</g>
<defs>
<clipPath id="clip0_1106_5799">
<rect width="32" height="32" fill="white"/>
</clipPath>
</defs>
</svg>
