<svg width="24" height="22" viewBox="0 0 24 22" fill="none" xmlns="http://www.w3.org/2000/svg">
<path d="M4.50943e-06 3.18945C4.50943e-06 2.59272 0.237057 2.02042 0.659014 1.59846C1.08097 1.17651 1.65327 0.939453 2.25 0.939453H18.75C19.3467 0.939453 19.919 1.17651 20.341 1.59846C20.7629 2.02042 21 2.59272 21 3.18945V18.9814C21 19.4314 20.925 19.9624 20.643 20.4394H21.75C21.9489 20.4394 22.1397 20.3604 22.2803 20.2198C22.421 20.0791 22.5 19.8884 22.5 19.6894V6.18945C22.5 5.99054 22.579 5.79977 22.7197 5.65912C22.8603 5.51847 23.0511 5.43945 23.25 5.43945C23.4489 5.43945 23.6397 5.51847 23.7803 5.65912C23.921 5.79977 24 5.99054 24 6.18945V19.6894C24 20.2862 23.7629 20.8585 23.341 21.2804C22.919 21.7024 22.3467 21.9394 21.75 21.9394H2.2455C1.95024 21.9394 1.65788 21.8812 1.38515 21.7681C1.11242 21.655 0.864676 21.4892 0.656103 21.2802C0.44753 21.0712 0.282222 20.8231 0.16964 20.5501C0.0570577 20.2772 -0.000587198 19.9847 4.50943e-06 19.6894V3.18945ZM18 20.4394C18.555 20.4394 18.981 20.1229 19.2795 19.7779C19.4175 19.6189 19.5 19.3594 19.5 18.9814V3.18945C19.5 2.99054 19.421 2.79978 19.2803 2.65912C19.1397 2.51847 18.9489 2.43945 18.75 2.43945H2.25C2.05109 2.43945 1.86033 2.51847 1.71967 2.65912C1.57902 2.79978 1.5 2.99054 1.5 3.18945V19.6894C1.5 20.1064 1.8345 20.4394 2.2455 20.4394H18Z" fill="black"/>
<path d="M3 3.93945H18V6.93945H3V3.93945ZM3 8.43945H9V12.9395H3V8.43945ZM3 14.4395H9V15.9395H3V14.4395ZM3 17.4394H9V18.9394H3V17.4394ZM10.5 8.43945H13.5V9.93945H10.5V8.43945ZM15 8.43945H18V9.93945H15V8.43945ZM10.5 11.4395H13.5V12.9395H10.5V11.4395ZM15 11.4395H18V12.9395H15V11.4395ZM10.5 14.4395H13.5V15.9395H10.5V14.4395ZM15 14.4395H18V15.9395H15V14.4395ZM10.5 17.4394H13.5V18.9394H10.5V17.4394ZM15 17.4394H18V18.9394H15V17.4394Z" fill="black"/>
</svg>
