<svg width="46" height="35" viewBox="0 0 46 35" fill="none" xmlns="http://www.w3.org/2000/svg">
<g clip-path="url(#clip0_1106_5834)">
<path d="M12.9344 12.83C12.2644 14.51 12.8544 15.56 14.6944 15.98C16.1244 16.32 17.5244 17.16 18.9044 18.5C20.2844 19.84 20.9844 21.9 20.9844 24.66C20.9844 25.84 20.7744 26.99 20.3544 28.12C19.9344 29.25 19.3044 30.28 18.4644 31.2C17.6244 32.12 16.5944 32.88 15.3844 33.46C14.1644 34.05 12.7644 34.34 11.1744 34.34C8.23437 34.34 5.80438 33.21 3.87438 30.94C1.94438 28.68 0.984375 25.83 0.984375 22.38C0.984375 17.1 2.61437 12.57 5.89437 8.79C9.16437 5.03 13.3544 2.1 18.4744 0L21.3644 5.28C19.4344 6.2 17.6944 7.32 16.1444 8.61C14.5944 9.91 13.5244 11.31 12.9344 12.82V12.83ZM36.5844 12.96C35.9144 14.64 36.5044 15.69 38.3444 16.11C39.7744 16.45 41.1744 17.29 42.5544 18.63C43.9344 19.97 44.6344 22.03 44.6344 24.79C44.6344 25.97 44.4244 27.12 44.0044 28.25C43.5844 29.38 42.9544 30.41 42.1144 31.33C41.2744 32.25 40.2444 33.01 39.0344 33.59C37.8144 34.18 36.4144 34.47 34.8244 34.47C31.8844 34.47 29.4544 33.34 27.5244 31.07C25.5944 28.8 24.6344 25.96 24.6344 22.51C24.6344 17.23 26.2744 12.7 29.5444 8.92C32.8144 5.15 37.0144 2.21 42.1244 0.11L45.0244 5.39C43.0944 6.31 41.3544 7.43 39.8044 8.72C38.2544 10.02 37.1844 11.42 36.5944 12.93L36.5844 12.96Z" fill="url(#paint0_linear_1106_5834)"/>
</g>
<defs>
<linearGradient id="paint0_linear_1106_5834" x1="45.0244" y1="17.6554" x2="0.984375" y2="17.6554" gradientUnits="userSpaceOnUse">
<stop offset="0.0001" stop-color="#00E6E6"/>
<stop offset="0.401042" stop-color="#0FEAF8"/>
<stop offset="0.609375" stop-color="#0AD8F5"/>
<stop offset="1" stop-color="#00B6F0"/>
</linearGradient>
<clipPath id="clip0_1106_5834">
<rect width="44.03" height="34.47" fill="white" transform="translate(0.984375)"/>
</clipPath>
</defs>
</svg>
