<svg width="14" height="15" viewBox="0 0 14 15" fill="none" xmlns="http://www.w3.org/2000/svg">
<path d="M7 0.939453C7.23206 0.939453 7.45462 1.03164 7.61872 1.19573C7.78281 1.35983 7.875 1.58239 7.875 1.81445V7.06445H13.125C13.3571 7.06445 13.5796 7.15664 13.7437 7.32073C13.9078 7.48483 14 7.70739 14 7.93945C14 8.17152 13.9078 8.39408 13.7437 8.55817C13.5796 8.72227 13.3571 8.81445 13.125 8.81445H7.875V14.0645C7.875 14.2965 7.78281 14.5191 7.61872 14.6832C7.45462 14.8473 7.23206 14.9395 7 14.9395C6.76794 14.9395 6.54538 14.8473 6.38128 14.6832C6.21719 14.5191 6.125 14.2965 6.125 14.0645V8.81445H0.875C0.642936 8.81445 0.420376 8.72227 0.256282 8.55817C0.0921874 8.39408 0 8.17152 0 7.93945C0 7.70739 0.0921874 7.48483 0.256282 7.32073C0.420376 7.15664 0.642936 7.06445 0.875 7.06445H6.125V1.81445C6.125 1.58239 6.21719 1.35983 6.38128 1.19573C6.54538 1.03164 6.76794 0.939453 7 0.939453Z" fill="#6C747F"/>
</svg>
