<svg width="50" height="50" viewBox="0 0 50 50" fill="none" xmlns="http://www.w3.org/2000/svg">
<path d="M14.5186 14.5196C14.6638 14.3741 14.8362 14.2586 15.026 14.1799C15.2158 14.1011 15.4193 14.0605 15.6249 14.0605C15.8304 14.0605 16.0339 14.1011 16.2237 14.1799C16.4135 14.2586 16.586 14.3741 16.7311 14.5196L24.9999 22.7915L33.2686 14.5196C33.4139 14.3743 33.5864 14.2591 33.7762 14.1805C33.966 14.1018 34.1694 14.0614 34.3749 14.0614C34.5803 14.0614 34.7838 14.1018 34.9736 14.1805C35.1634 14.2591 35.3358 14.3743 35.4811 14.5196C35.6264 14.6649 35.7416 14.8373 35.8202 15.0271C35.8989 15.217 35.9393 15.4204 35.9393 15.6258C35.9393 15.8313 35.8989 16.0347 35.8202 16.2245C35.7416 16.4143 35.6264 16.5868 35.4811 16.7321L27.2092 25.0008L35.4811 33.2696C35.6264 33.4149 35.7416 33.5873 35.8202 33.7771C35.8989 33.967 35.9393 34.1704 35.9393 34.3758C35.9393 34.5813 35.8989 34.7847 35.8202 34.9745C35.7416 35.1643 35.6264 35.3368 35.4811 35.4821C35.3358 35.6274 35.1634 35.7426 34.9736 35.8212C34.7838 35.8998 34.5803 35.9403 34.3749 35.9403C34.1694 35.9403 33.966 35.8998 33.7762 35.8212C33.5864 35.7426 33.4139 35.6274 33.2686 35.4821L24.9999 27.2102L16.7311 35.4821C16.5858 35.6274 16.4134 35.7426 16.2236 35.8212C16.0338 35.8998 15.8303 35.9403 15.6249 35.9403C15.4194 35.9403 15.216 35.8998 15.0262 35.8212C14.8364 35.7426 14.6639 35.6274 14.5186 35.4821C14.3733 35.3368 14.2581 35.1643 14.1795 34.9745C14.1009 34.7847 14.0604 34.5813 14.0604 34.3758C14.0604 34.1704 14.1009 33.967 14.1795 33.7771C14.2581 33.5873 14.3733 33.4149 14.5186 33.2696L22.7905 25.0008L14.5186 16.7321C14.3731 16.5869 14.2577 16.4145 14.1789 16.2247C14.1001 16.0349 14.0596 15.8314 14.0596 15.6258C14.0596 15.4203 14.1001 15.2168 14.1789 15.027C14.2577 14.8372 14.3731 14.6647 14.5186 14.5196Z" fill="#666666"/>
</svg>
