<svg width="32" height="32" viewBox="0 0 32 32" fill="none" xmlns="http://www.w3.org/2000/svg">
<path d="M23 12.0547C23 12.3199 22.8946 12.5743 22.7071 12.7618C22.5196 12.9493 22.2652 13.0547 22 13.0547C21.7348 13.0547 21.4804 12.9493 21.2929 12.7618C21.1054 12.5743 21 12.3199 21 12.0547C21 11.7895 21.1054 11.5351 21.2929 11.3476C21.4804 11.16 21.7348 11.0547 22 11.0547C22.2652 11.0547 22.5196 11.16 22.7071 11.3476C22.8946 11.5351 23 11.7895 23 12.0547ZM20 15.0547C20.2652 15.0547 20.5196 14.9493 20.7071 14.7618C20.8946 14.5743 21 14.3199 21 14.0547C21 13.7895 20.8946 13.5351 20.7071 13.3476C20.5196 13.16 20.2652 13.0547 20 13.0547C19.7348 13.0547 19.4804 13.16 19.2929 13.3476C19.1054 13.5351 19 13.7895 19 14.0547C19 14.3199 19.1054 14.5743 19.2929 14.7618C19.4804 14.9493 19.7348 15.0547 20 15.0547ZM25 14.0547C25 14.3199 24.8946 14.5743 24.7071 14.7618C24.5196 14.9493 24.2652 15.0547 24 15.0547C23.7348 15.0547 23.4804 14.9493 23.2929 14.7618C23.1054 14.5743 23 14.3199 23 14.0547C23 13.7895 23.1054 13.5351 23.2929 13.3476C23.4804 13.16 23.7348 13.0547 24 13.0547C24.2652 13.0547 24.5196 13.16 24.7071 13.3476C24.8946 13.5351 25 13.7895 25 14.0547ZM22 17.0547C22.2652 17.0547 22.5196 16.9493 22.7071 16.7618C22.8946 16.5743 23 16.3199 23 16.0547C23 15.7895 22.8946 15.5351 22.7071 15.3476C22.5196 15.16 22.2652 15.0547 22 15.0547C21.7348 15.0547 21.4804 15.16 21.2929 15.3476C21.1054 15.5351 21 15.7895 21 16.0547C21 16.3199 21.1054 16.5743 21.2929 16.7618C21.4804 16.9493 21.7348 17.0547 22 17.0547ZM9 11.0547H11V13.0547H13V15.0547H11V17.0547H9V15.0547H7V13.0547H9V11.0547Z" fill="#141D3E"/>
<path d="M6.10121 6.52053C6.06705 6.39354 6.05827 6.26105 6.07538 6.13067C6.09249 6.00028 6.13514 5.87455 6.20091 5.76067C6.26667 5.64679 6.35425 5.547 6.45863 5.46701C6.56301 5.38702 6.68215 5.32841 6.80921 5.29453L10.6732 4.25853C10.806 4.22313 10.9448 4.2155 11.0807 4.23611C11.2166 4.25673 11.3468 4.30514 11.4632 4.37834C11.5795 4.45154 11.6796 4.54794 11.757 4.66153C11.8344 4.77512 11.8876 4.90346 11.9132 5.03853C13.2232 4.88053 14.6132 4.80453 15.9992 4.80453C17.4392 4.80453 18.8852 4.88653 20.2392 5.05653C20.2626 4.91941 20.3143 4.78868 20.3911 4.67269C20.4679 4.5567 20.568 4.45801 20.685 4.3829C20.8021 4.3078 20.9336 4.25795 21.071 4.23653C21.2084 4.21512 21.3488 4.22261 21.4832 4.25853L25.3472 5.29453C25.4947 5.33399 25.6311 5.40669 25.7461 5.50704C25.8611 5.60739 25.9516 5.73274 26.0107 5.87347C26.0698 6.01421 26.0958 6.1666 26.0869 6.31897C26.078 6.47134 26.0343 6.61965 25.9592 6.75253C26.2392 6.93253 26.4912 7.13253 26.7052 7.34653C27.5212 8.16253 28.2652 9.44653 28.8952 10.8905C29.5352 12.3565 30.0932 14.0725 30.5052 15.8225C30.9172 17.5725 31.1852 19.3825 31.2332 21.0345C31.2812 22.6665 31.1152 24.2385 30.5772 25.4545C30.3319 26.0005 29.9203 26.4549 29.4013 26.753C28.8823 27.0511 28.2824 27.1777 27.6872 27.1145C26.4152 26.9805 25.4572 26.3265 24.6612 25.5685C24.1712 25.1045 23.6692 24.5165 23.1832 23.9525C22.9312 23.6565 22.6832 23.3685 22.4472 23.1065C20.9912 21.4985 19.2532 20.0525 15.9992 20.0525C12.7452 20.0525 11.0072 21.4985 9.55121 23.1065C9.31321 23.3685 9.06721 23.6565 8.81521 23.9525C8.32921 24.5165 7.82721 25.1025 7.33721 25.5685C6.54121 26.3285 5.58321 26.9805 4.31121 27.1145C3.71603 27.1777 3.11611 27.0511 2.59711 26.753C2.07811 26.4549 1.66656 26.0005 1.42121 25.4545C0.881212 24.2385 0.717211 22.6645 0.763211 21.0345C0.811211 19.3825 1.08321 17.5745 1.49321 15.8225C1.90521 14.0725 2.46521 12.3565 3.10321 10.8905C3.73321 9.44653 4.47721 8.16253 5.29121 7.34653C5.55267 7.09008 5.84332 6.86521 6.15721 6.67653C6.13419 6.6255 6.11546 6.57466 6.10121 6.52053ZM10.1732 7.34453C8.41921 7.71453 7.23521 8.23053 6.70721 8.76053C6.15521 9.31253 5.53321 10.3265 4.93721 11.6905C4.30493 13.1737 3.80434 14.7096 3.44121 16.2805C3.0576 17.8583 2.8305 19.4701 2.76321 21.0925C2.71921 22.6025 2.88721 23.8285 3.24921 24.6445C3.32335 24.8035 3.44537 24.9352 3.59816 25.0213C3.75096 25.1074 3.92686 25.1435 4.10121 25.1245C4.75521 25.0565 5.32121 24.7265 5.95921 24.1205C6.38321 23.7165 6.75921 23.2745 7.18921 22.7725C7.45521 22.4605 7.74121 22.1265 8.06921 21.7645C9.72121 19.9385 11.9552 18.0545 15.9992 18.0545C20.0432 18.0545 22.2772 19.9385 23.9292 21.7645C24.2572 22.1265 24.5432 22.4605 24.8092 22.7725C25.2372 23.2745 25.6152 23.7165 26.0392 24.1205C26.6752 24.7265 27.2412 25.0565 27.8972 25.1265C28.0718 25.1453 28.2479 25.1089 28.4007 25.0225C28.5535 24.936 28.6754 24.8038 28.7492 24.6445C29.1092 23.8285 29.2792 22.6045 29.2352 21.0925C29.1679 19.4701 28.9408 17.8584 28.5572 16.2805C28.194 14.7096 27.6934 13.1737 27.0612 11.6905C26.4652 10.3265 25.8412 9.31053 25.2912 8.76053C24.7632 8.23053 23.5792 7.71453 21.8252 7.34453C20.1252 6.98653 18.0712 6.80453 15.9992 6.80453C13.9272 6.80453 11.8732 6.98653 10.1732 7.34453Z" fill="#141D3E"/>
</svg>
