<svg width="32" height="32" viewBox="0 0 32 32" fill="none" xmlns="http://www.w3.org/2000/svg">
<path d="M4.97184 1C4.97184 0.734784 5.07749 0.48043 5.26556 0.292893C5.45363 0.105357 5.7087 0 5.97467 0L26.0313 0C26.2973 0 26.5524 0.105357 26.7404 0.292893C26.9285 0.48043 27.0342 0.734784 27.0342 1C27.0342 2.076 27.0101 3.1 26.966 4.072C27.7585 4.20286 28.5167 4.49064 29.1959 4.91836C29.8751 5.34608 30.4615 5.90509 30.9206 6.56242C31.3797 7.21974 31.7021 7.96208 31.8689 8.74565C32.0357 9.52923 32.0434 10.3382 31.8917 11.1248C31.7399 11.9114 31.4318 12.6597 30.9854 13.3257C30.539 13.9916 29.9634 14.5617 29.2925 15.0023C28.6216 15.4429 27.8691 15.745 27.0792 15.891C26.2894 16.0369 25.4782 16.0237 24.6936 15.852C23.1091 19.582 20.9269 21.406 19.0115 21.874V26.22L21.8696 26.932C22.2587 27.028 22.6257 27.202 22.9466 27.442L26.633 30.2C26.8014 30.3259 26.9258 30.5015 26.9886 30.7018C27.0513 30.9022 27.0493 31.1171 26.9827 31.3162C26.9162 31.5153 26.7885 31.6885 26.6177 31.8112C26.447 31.934 26.2418 32 26.0313 32H5.97467C5.76419 32 5.55905 31.934 5.3883 31.8112C5.21756 31.6885 5.08986 31.5153 5.0233 31.3162C4.95674 31.1171 4.9547 30.9022 5.01745 30.7018C5.08021 30.5015 5.20459 30.3259 5.37297 30.2L9.05939 27.442C9.38029 27.202 9.74733 27.028 10.1364 26.932L12.9945 26.22V21.874C11.0791 21.406 8.89693 19.582 7.31245 15.85C6.52741 16.0226 5.71564 16.0366 4.92509 15.8911C4.13454 15.7456 3.38124 15.4437 2.70967 15.003C2.03811 14.5624 1.4619 13.992 1.01507 13.3257C0.568244 12.6593 0.259863 11.9103 0.108138 11.1231C-0.043586 10.3359 -0.035577 9.52635 0.131693 8.74227C0.298962 7.95819 0.622101 7.21548 1.08202 6.55801C1.54195 5.90054 2.12933 5.34163 2.80948 4.91431C3.48963 4.48698 4.24876 4.19989 5.04204 4.07C4.99482 3.04735 4.97141 2.02374 4.97184 1ZM5.1704 6.08C4.12381 6.27096 3.19617 6.86867 2.59153 7.74165C1.98689 8.61463 1.75479 9.69137 1.94629 10.735C2.13779 11.7786 2.73719 12.7037 3.61265 13.3066C4.4881 13.9095 5.56789 14.141 6.61448 13.95C5.94659 11.85 5.43515 9.258 5.1704 6.08ZM25.3935 13.95C26.4401 14.141 27.5199 13.9095 28.3954 13.3066C29.2708 12.7037 29.8702 11.7786 30.0617 10.735C30.2532 9.69137 30.0211 8.61463 29.4165 7.74165C28.8118 6.86867 27.8842 6.27096 26.8376 6.08C26.5709 9.26 26.0594 11.85 25.3935 13.95ZM6.98553 2C6.99957 3.034 7.03767 4.012 7.09784 4.938C7.35858 8.994 8.01443 12.03 8.84277 14.272C10.5757 18.96 12.9624 20 13.9973 20C14.2633 20 14.5184 20.1054 14.7064 20.2929C14.8945 20.4804 15.0002 20.7348 15.0002 21V26.22C15.0002 26.6659 14.8507 27.0989 14.5757 27.4504C14.3006 27.8019 13.9156 28.0517 13.4819 28.16L10.6218 28.872C10.492 28.9042 10.3699 28.962 10.2628 29.042L8.98317 30H23.0228L21.7432 29.042C21.6355 28.9618 21.5127 28.904 21.3822 28.872L18.5241 28.16C18.0904 28.0517 17.7054 27.8019 17.4303 27.4504C17.1553 27.0989 17.0058 26.6659 17.0058 26.22V21C17.0058 20.7348 17.1115 20.4804 17.2996 20.2929C17.4876 20.1054 17.7427 20 18.0087 20C19.0436 20 21.4303 18.96 23.1632 14.272C23.9916 12.032 24.6474 8.992 24.9082 4.938C24.9683 4.012 25.0064 3.034 25.0205 2H6.98553Z" fill="#141D3E"/>
</svg>
