<svg width="16" height="17" viewBox="0 0 16 17" fill="none" xmlns="http://www.w3.org/2000/svg">
<g clip-path="url(#clip0_1106_6148)">
<path d="M3 2.93945C3 2.27641 3.26339 1.64053 3.73223 1.17169C4.20107 0.702845 4.83696 0.439453 5.5 0.439453C6.16304 0.439453 6.79893 0.702845 7.26777 1.17169C7.73661 1.64053 8 2.27641 8 2.93945C8 2.27641 8.26339 1.64053 8.73223 1.17169C9.20107 0.702845 9.83696 0.439453 10.5 0.439453C11.163 0.439453 11.7989 0.702845 12.2678 1.17169C12.7366 1.64053 13 2.27641 13 2.93945V2.94545C13 3.01545 13 3.21545 12.962 3.43945H15C15.2652 3.43945 15.5196 3.54481 15.7071 3.73235C15.8946 3.91988 16 4.17424 16 4.43945V5.43945C16 5.70467 15.8946 5.95902 15.7071 6.14656C15.5196 6.3341 15.2652 6.43945 15 6.43945H1C0.734784 6.43945 0.48043 6.3341 0.292893 6.14656C0.105357 5.95902 0 5.70467 0 5.43945V4.43945C0 4.17424 0.105357 3.91988 0.292893 3.73235C0.48043 3.54481 0.734784 3.43945 1 3.43945H3.038C3.01159 3.27613 2.99888 3.11089 3 2.94545V2.93945ZM4.068 3.43945H7V2.93945C7 2.74247 6.9612 2.54742 6.88582 2.36543C6.81044 2.18344 6.69995 2.01808 6.56066 1.87879C6.42137 1.7395 6.25601 1.62902 6.07403 1.55363C5.89204 1.47825 5.69698 1.43945 5.5 1.43945C5.30302 1.43945 5.10796 1.47825 4.92597 1.55363C4.74399 1.62902 4.57863 1.7395 4.43934 1.87879C4.30005 2.01808 4.18956 2.18344 4.11418 2.36543C4.0388 2.54742 4 2.74247 4 2.93945C4 3.02445 4.002 3.21345 4.045 3.36945C4.05101 3.3933 4.05869 3.41669 4.068 3.43945ZM9 3.43945H11.932C11.9412 3.41665 11.9489 3.39327 11.955 3.36945C11.998 3.21345 12 3.02445 12 2.93945C12 2.54163 11.842 2.1601 11.5607 1.87879C11.2794 1.59749 10.8978 1.43945 10.5 1.43945C10.1022 1.43945 9.72064 1.59749 9.43934 1.87879C9.15804 2.1601 9 2.54163 9 2.93945V3.43945ZM15 7.43945V14.9395C15 15.3373 14.842 15.7188 14.5607 16.0001C14.2794 16.2814 13.8978 16.4395 13.5 16.4395H9V7.43945H15ZM2.5 16.4395C2.10218 16.4395 1.72064 16.2814 1.43934 16.0001C1.15804 15.7188 1 15.3373 1 14.9395V7.43945H7V16.4395H2.5Z" fill="url(#paint0_linear_1106_6148)"/>
</g>
<defs>
<linearGradient id="paint0_linear_1106_6148" x1="16" y1="8.63458" x2="-4.46439e-08" y2="8.63458" gradientUnits="userSpaceOnUse">
<stop offset="0.0001" stop-color="#00E6E6"/>
<stop offset="0.401042" stop-color="#0FEAF8"/>
<stop offset="0.609375" stop-color="#0AD8F5"/>
<stop offset="1" stop-color="#00B6F0"/>
</linearGradient>
<clipPath id="clip0_1106_6148">
<rect width="16" height="16" fill="white" transform="translate(0 0.439453)"/>
</clipPath>
</defs>
</svg>
