<svg width="16" height="17" viewBox="0 0 16 17" fill="none" xmlns="http://www.w3.org/2000/svg">
<g clip-path="url(#clip0_1107_4055)">
<path d="M11 1.5C10.4696 1.5 9.96086 1.71071 9.58579 2.08579C9.21071 2.46086 9 2.96957 9 3.5V7.5C9.53043 7.5 10.0391 7.71071 10.4142 8.08579C10.7893 8.46086 11 8.96957 11 9.5V14.5C11 15.0304 10.7893 15.5391 10.4142 15.9142C10.0391 16.2893 9.53043 16.5 9 16.5H3C2.46957 16.5 1.96086 16.2893 1.58579 15.9142C1.21071 15.5391 1 15.0304 1 14.5V9.5C1 8.96957 1.21071 8.46086 1.58579 8.08579C1.96086 7.71071 2.46957 7.5 3 7.5H8V3.5C8 2.70435 8.31607 1.94129 8.87868 1.37868C9.44129 0.81607 10.2044 0.5 11 0.5C11.7956 0.5 12.5587 0.81607 13.1213 1.37868C13.6839 1.94129 14 2.70435 14 3.5V7.5C14 7.63261 13.9473 7.75979 13.8536 7.85355C13.7598 7.94732 13.6326 8 13.5 8C13.3674 8 13.2402 7.94732 13.1464 7.85355C13.0527 7.75979 13 7.63261 13 7.5V3.5C13 2.96957 12.7893 2.46086 12.4142 2.08579C12.0391 1.71071 11.5304 1.5 11 1.5Z" fill="#141D3E"/>
</g>
<defs>
<clipPath id="clip0_1107_4055">
<rect width="16" height="16" fill="white" transform="translate(0 0.5)"/>
</clipPath>
</defs>
</svg>
