<svg width="46" height="35" viewBox="0 0 46 35" fill="none" xmlns="http://www.w3.org/2000/svg">
<g clip-path="url(#clip0_1114_5643)">
<path d="M33.0656 22.1095C33.7356 20.4295 33.1456 19.3795 31.3056 18.9595C29.8756 18.6195 28.4756 17.7795 27.0956 16.4395C25.7156 15.0995 25.0156 13.0395 25.0156 10.2795C25.0156 9.09946 25.2256 7.94945 25.6456 6.81945C26.0656 5.68945 26.6956 4.65945 27.5356 3.73945C28.3756 2.81945 29.4056 2.05946 30.6156 1.47946C31.8356 0.889455 33.2356 0.599454 34.8256 0.599454C37.7656 0.599454 40.1956 1.72945 42.1256 3.99945C44.0556 6.25945 45.0156 9.10945 45.0156 12.5595C45.0156 17.8395 43.3856 22.3695 40.1056 26.1495C36.8356 29.9095 32.6456 32.8395 27.5256 34.9395L24.6356 29.6595C26.5656 28.7395 28.3056 27.6195 29.8556 26.3295C31.4056 25.0295 32.4756 23.6295 33.0656 22.1195L33.0656 22.1095ZM9.41563 21.9795C10.0856 20.2995 9.49562 19.2495 7.65562 18.8295C6.22562 18.4895 4.82562 17.6495 3.44562 16.3095C2.06562 14.9695 1.36562 12.9095 1.36562 10.1495C1.36562 8.96946 1.57562 7.81946 1.99562 6.68946C2.41562 5.55946 3.04562 4.52946 3.88562 3.60946C4.72562 2.68946 5.75562 1.92946 6.96562 1.34946C8.18562 0.759456 9.58562 0.469455 11.1756 0.469455C14.1156 0.469455 16.5456 1.59946 18.4756 3.86946C20.4056 6.13946 21.3656 8.97945 21.3656 12.4295C21.3656 17.7095 19.7256 22.2395 16.4556 26.0195C13.1856 29.7895 8.98563 32.7295 3.87563 34.8295L0.975624 29.5495C2.90562 28.6295 4.64562 27.5095 6.19562 26.2195C7.74562 24.9195 8.81562 23.5195 9.40562 22.0095L9.41563 21.9795Z" fill="url(#paint0_linear_1114_5643)"/>
</g>
<defs>
<linearGradient id="paint0_linear_1114_5643" x1="0.975623" y1="17.2841" x2="45.0156" y2="17.2841" gradientUnits="userSpaceOnUse">
<stop offset="0.0001" stop-color="#00E6E6"/>
<stop offset="0.401042" stop-color="#0FEAF8"/>
<stop offset="0.609375" stop-color="#0AD8F5"/>
<stop offset="1" stop-color="#00B6F0"/>
</linearGradient>
<clipPath id="clip0_1114_5643">
<rect width="44.03" height="34.47" fill="white" transform="translate(45.0156 34.9395) rotate(180)"/>
</clipPath>
</defs>
</svg>
