<svg width="84" height="19" viewBox="0 0 84 19" fill="none" xmlns="http://www.w3.org/2000/svg">
<g clip-path="url(#clip0_1107_5255)">
<path d="M26.2287 2.96723C25.92 1.80011 25.0127 0.879397 23.8608 0.568067C21.7711 0 13.3947 0 13.3947 0C13.3947 0 5.01682 0 2.92854 0.568067C1.77518 0.879397 0.867931 1.79863 0.559204 2.96723C0 5.08309 0 9.50074 0 9.50074C0 9.50074 0 13.9169 0.559204 16.0342C0.867931 17.2028 1.77518 18.1221 2.92854 18.4334C5.01827 19 13.3947 19 13.3947 19C13.3947 19 21.7711 19 23.8608 18.4334C25.0127 18.1206 25.9214 17.2014 26.2287 16.0342C26.7879 13.9169 26.7879 9.50074 26.7879 9.50074C26.7879 9.50074 26.7894 5.08309 26.2287 2.96723Z" fill="#FF0800"/>
<path d="M10.7148 13.571L17.6758 9.50011L10.7148 5.42773V13.571Z" fill="white"/>
<path d="M38.8849 17.2853C38.3548 16.9238 37.9777 16.3601 37.7549 15.5958C37.5306 14.833 37.4199 13.8164 37.4199 12.5489V10.8211C37.4199 9.54039 37.5466 8.51049 37.8029 7.73438C38.0578 6.95827 38.4568 6.39168 39 6.03608C39.5431 5.68049 40.2553 5.50195 41.1363 5.50195C42.0042 5.50195 42.7003 5.68344 43.2246 6.04494C43.7488 6.40791 44.1304 6.97303 44.3736 7.74324C44.6153 8.51345 44.7376 9.53892 44.7376 10.8197V12.5475C44.7376 13.8164 44.6197 14.8345 44.3838 15.6047C44.1478 16.3749 43.7649 16.9371 43.2348 17.2927C42.7047 17.6483 41.9868 17.8268 41.0795 17.8268C40.146 17.8283 39.415 17.6468 38.8849 17.2853ZM41.8542 15.4217C42.0013 15.0337 42.0741 14.3992 42.0741 13.5198V9.81188C42.0741 8.95757 41.9999 8.33344 41.8542 7.93948C41.7072 7.54404 41.4479 7.3478 41.078 7.3478C40.7198 7.3478 40.4679 7.54552 40.3208 7.93948C40.1737 8.33344 40.1009 8.95905 40.1009 9.81188V13.5198C40.1009 14.3992 40.1708 15.0337 40.3121 15.4217C40.4533 15.8098 40.7082 16.0046 41.078 16.0046C41.4479 16.0046 41.7072 15.8098 41.8542 15.4217Z" fill="#B3B2B2"/>
<path d="M79.5746 12.5764V13.1784C79.5746 13.9412 79.5964 14.5152 79.6416 14.8959C79.6867 15.278 79.7785 15.5554 79.9197 15.731C80.0595 15.9051 80.278 15.9937 80.5707 15.9937C80.9668 15.9937 81.2376 15.8387 81.3847 15.5274C81.5318 15.2161 81.6105 14.6997 81.625 13.9752L83.9041 14.1109C83.9172 14.2142 83.923 14.3573 83.923 14.5373C83.923 15.6381 83.6259 16.4599 83.0318 17.0029C82.4376 17.5459 81.5973 17.8189 80.5124 17.8189C79.2091 17.8189 78.296 17.4042 77.7732 16.5765C77.249 15.7487 76.9883 14.468 76.9883 12.7328V10.6553C76.9883 8.86995 77.2591 7.56561 77.8023 6.74376C78.3455 5.92191 79.2746 5.51172 80.5896 5.51172C81.4969 5.51172 82.193 5.67993 82.6779 6.01634C83.1628 6.35275 83.5051 6.87656 83.7031 7.58775C83.9012 8.30041 84.0002 9.28309 84.0002 10.5387V12.5764H79.5746ZM79.9095 7.56856C79.7756 7.73677 79.6853 8.01121 79.6416 8.39337C79.5964 8.77552 79.5746 9.35392 79.5746 10.13V10.9843H81.51V10.13C81.51 9.3672 81.4838 8.78733 81.4342 8.39337C81.3833 7.99941 81.2901 7.72054 81.1561 7.55824C81.0221 7.39593 80.8139 7.31625 80.5328 7.31625C80.2518 7.31625 80.0435 7.40036 79.9095 7.56856Z" fill="#B3B2B2"/>
<path d="M32.4461 12.3534L29.4375 1.34766H32.0617L33.116 6.33632C33.384 7.56541 33.582 8.61449 33.7102 9.48061H33.7874C33.8762 8.85942 34.0742 7.81772 34.3815 6.3555L35.4737 1.34766H38.0979L35.0514 12.3534V17.6342H32.4461V12.3534Z" fill="#B3B2B2"/>
<path d="M53.2737 5.73438V17.6328H51.2043L50.9742 16.1765H50.916C50.3539 17.2757 49.5107 17.8261 48.3865 17.8261C47.6074 17.8261 47.0336 17.5679 46.6623 17.05C46.2909 16.5321 46.1074 15.7235 46.1074 14.6243V5.73438H48.7505V14.4693C48.7505 15.0005 48.8073 15.3782 48.9224 15.6055C49.0374 15.8327 49.2282 15.9448 49.4976 15.9448C49.7277 15.9448 49.9476 15.874 50.1587 15.7309C50.3699 15.5878 50.5257 15.4077 50.6277 15.1879V5.73438H53.2737Z" fill="#B3B2B2"/>
<path d="M66.8328 5.73438V17.6328H64.7634L64.5333 16.1765H64.4765C63.9144 17.2757 63.0713 17.8261 61.947 17.8261C61.1679 17.8261 60.5927 17.5679 60.2228 17.05C59.8529 16.5321 59.668 15.7235 59.668 14.6243V5.73438H62.3111V14.4693C62.3111 15.0005 62.3679 15.3782 62.4829 15.6055C62.598 15.8327 62.7887 15.9448 63.0581 15.9448C63.2882 15.9448 63.5081 15.874 63.7193 15.7309C63.9304 15.5878 64.0863 15.4077 64.1882 15.1879V5.73438H66.8328Z" fill="#B3B2B2"/>
<path d="M60.4558 3.50188H57.8316V17.6342H55.2453V3.50188H52.6211V1.34766H60.4558V3.50188Z" fill="#B3B2B2"/>
<path d="M75.5838 7.63863C75.4236 6.8876 75.1658 6.34461 74.8076 6.0082C74.4494 5.67179 73.9586 5.50358 73.3324 5.50358C72.8475 5.50358 72.3931 5.64228 71.9723 5.92115C71.5514 6.20002 71.2252 6.56446 70.9951 7.01744H70.9762V0.748047H68.4277V17.6351H70.6107L70.8786 16.5093H70.9354C71.1393 16.9107 71.4466 17.2279 71.8558 17.461C72.2635 17.6942 72.7179 17.8107 73.2159 17.8107C74.1101 17.8107 74.7668 17.3932 75.1891 16.5595C75.61 15.7244 75.8212 14.4215 75.8212 12.6479V10.7637C75.8226 9.42988 75.7425 8.38818 75.5838 7.63863ZM73.1606 12.4915C73.1606 13.3591 73.1256 14.0379 73.0557 14.5292C72.9858 15.0205 72.8679 15.3702 72.7019 15.5768C72.5358 15.7834 72.3116 15.8881 72.032 15.8881C71.815 15.8881 71.614 15.8365 71.4291 15.7332C71.2441 15.6299 71.0941 15.475 70.9791 15.267V8.51212C71.0679 8.18899 71.2208 7.9234 71.4393 7.71683C71.6563 7.51026 71.8922 7.40697 72.1485 7.40697C72.4164 7.40697 72.6247 7.51321 72.7703 7.72716C72.9174 7.9411 73.0193 8.29965 73.0761 8.80427C73.1329 9.30889 73.162 10.0275 73.162 10.9585V12.4915H73.1606Z" fill="#B3B2B2"/>
</g>
<defs>
<clipPath id="clip0_1107_5255">
<rect width="84" height="19" fill="white"/>
</clipPath>
</defs>
</svg>
