<svg width="483" height="165" viewBox="0 0 483 165" fill="none" xmlns="http://www.w3.org/2000/svg">
<g clip-path="url(#clip0_917_3422)">
<path d="M60.4365 72.0771H35.2752C30.1412 72.0771 26.1018 73.8204 23.1262 77.2917C20.1506 80.763 18.6706 85.5341 18.6706 91.5897C18.6706 97.6453 20.1506 102.416 23.1262 105.888C26.1018 109.359 30.1412 111.102 35.2752 111.102H60.4365V125.278H32.5925C22.3399 125.278 14.3383 122.434 8.60295 116.745C2.86765 111.056 0 102.676 0 91.6203C0 80.5642 2.86765 72.1842 8.60295 66.4956C14.3383 60.807 22.3399 57.9626 32.5925 57.9626H60.4365V72.1383V72.0771Z" fill="#141D3E"/>
<path d="M75.7 125.247V31.0181H93.2913V125.247H75.7Z" fill="#141D3E"/>
<path d="M156.241 81.8944C156.241 80.6099 156.071 79.3101 155.747 78.0255C155.424 76.741 154.838 75.6094 153.974 74.6307C153.127 73.6673 151.955 72.8721 150.49 72.2758C149.025 71.6641 147.145 71.3735 144.878 71.3735H110.682V57.9319H150.12C152.556 57.9319 155.162 58.3295 157.937 59.14C160.712 59.9504 163.271 61.2808 165.63 63.1312C167.989 64.9968 169.947 67.4588 171.489 70.5172C173.03 73.5909 173.817 77.3374 173.817 81.7874V125.262H126.932C120.087 125.262 114.891 123.382 111.299 119.635C107.722 115.888 105.918 111.01 105.918 105.046C105.918 102.141 106.381 99.4343 107.321 96.9264C108.262 94.4185 109.603 92.2777 111.345 90.5038C113.103 88.7299 115.277 87.3384 117.882 86.3291C120.488 85.3198 123.494 84.8152 126.917 84.8152H156.225V81.9097L156.241 81.8944ZM156.241 98.2415H133.654C132.513 98.2415 131.419 98.318 130.355 98.4862C129.291 98.6544 128.335 98.9755 127.487 99.4496C126.639 99.9236 125.946 100.627 125.406 101.514C124.882 102.401 124.62 103.578 124.62 105.031C124.62 106.484 124.882 107.661 125.406 108.548C125.93 109.435 126.624 110.123 127.487 110.613C128.351 111.102 129.291 111.423 130.355 111.576C131.419 111.744 132.513 111.821 133.654 111.821H156.241V98.2568V98.2415Z" fill="#141D3E"/>
<path d="M191.146 92.6141C187.569 88.8523 185.781 84.0353 185.781 78.1326C185.781 75.2272 186.243 72.5205 187.184 70.0126C188.124 67.5047 189.466 65.3638 191.208 63.59C192.95 61.8161 195.139 60.4245 197.745 59.4153C200.35 58.406 203.357 57.9014 206.779 57.9014H250.01V71.343H213.748C212.607 71.343 211.482 71.4195 210.387 71.5877C209.292 71.7559 208.29 72.077 207.396 72.5511C206.502 73.0404 205.793 73.7286 205.253 74.6155C204.729 75.5024 204.467 76.6799 204.467 78.1326C204.467 79.5854 204.729 80.7629 205.253 81.6498C205.777 82.5367 206.486 83.2096 207.396 83.653C208.29 84.0965 209.292 84.4023 210.387 84.5553C211.482 84.7235 212.607 84.7999 213.748 84.7999H232.681C236.103 84.7999 239.11 85.3046 241.715 86.3138C244.321 87.3231 246.495 88.7147 248.252 90.4886C249.995 92.2624 251.351 94.4033 252.276 96.9112C253.217 99.4191 253.679 102.126 253.679 105.031C253.679 111.01 251.891 115.873 248.299 119.62C244.722 123.382 239.511 125.247 232.665 125.247H185.781V111.806H225.712C226.853 111.806 227.978 111.729 229.073 111.561C230.168 111.393 231.17 111.072 232.064 110.597C232.958 110.123 233.667 109.435 234.207 108.533C234.731 107.646 234.993 106.469 234.993 105.016C234.993 103.563 234.731 102.401 234.207 101.499C233.683 100.612 232.958 99.9237 232.064 99.4344C231.17 98.945 230.168 98.6239 229.073 98.471C227.978 98.3027 226.853 98.2263 225.712 98.2263H206.779C199.934 98.2263 194.738 96.3454 191.146 92.5988V92.6141Z" fill="#141D3E"/>
<path d="M268.372 92.6141C264.795 88.8523 263.007 84.0353 263.007 78.1326C263.007 75.2272 263.469 72.5205 264.41 70.0126C265.35 67.5047 266.692 65.3638 268.434 63.59C270.176 61.8161 272.365 60.4245 274.971 59.4153C277.576 58.406 280.583 57.9014 284.005 57.9014H327.236V71.343H290.974C289.833 71.343 288.708 71.4195 287.613 71.5877C286.518 71.7559 285.516 72.077 284.622 72.5511C283.728 73.0404 283.019 73.7286 282.479 74.6155C281.955 75.5024 281.693 76.6799 281.693 78.1326C281.693 79.5854 281.955 80.7629 282.479 81.6498C283.003 82.5367 283.712 83.2096 284.622 83.653C285.516 84.0965 286.518 84.4023 287.613 84.5553C288.708 84.7235 289.833 84.7999 290.974 84.7999H309.907C313.329 84.7999 316.336 85.3046 318.941 86.3138C321.547 87.3231 323.721 88.7147 325.478 90.4886C327.221 92.2624 328.577 94.4033 329.502 96.9112C330.443 99.4191 330.905 102.126 330.905 105.031C330.905 111.01 329.117 115.873 325.525 119.62C321.948 123.382 316.737 125.247 309.891 125.247H263.007V111.806H302.938C304.079 111.806 305.204 111.729 306.299 111.561C307.394 111.393 308.396 111.072 309.29 110.597C310.184 110.123 310.894 109.435 311.433 108.533C311.957 107.646 312.219 106.469 312.219 105.016C312.219 103.563 311.957 102.401 311.433 101.499C310.909 100.612 310.184 99.9237 309.29 99.4344C308.396 98.945 307.394 98.6239 306.299 98.471C305.204 98.3027 304.079 98.2263 302.938 98.2263H284.005C277.16 98.2263 271.964 96.3454 268.372 92.5988V92.6141Z" fill="#141D3E"/>
<path d="M448.512 12.2381L390.169 19.6551C371.115 22.0731 355.681 39.3549 355.681 58.2387V159.348C355.681 164.718 361.947 166.914 366.18 163.027L383.962 146.724L448.512 138.521C467.566 136.103 483 118.821 483 99.9374V42.0695C483 23.1708 467.566 9.82011 448.512 12.2529V12.2381ZM437.1 66.9167C439.045 66.6645 440.869 67.1985 442.245 68.4001C443.606 69.5868 444.354 71.2927 444.354 73.1915C444.354 77.1077 441.153 80.6976 437.205 81.2019L395.089 86.557V100.575C395.089 102.311 395.777 103.868 397.019 104.951C398.275 106.049 399.935 106.524 401.73 106.301L447.151 100.546C449.08 100.293 450.92 100.827 452.281 102.014C453.642 103.201 454.389 104.907 454.389 106.806C454.389 110.722 451.189 114.312 447.241 114.816L401.775 120.572C400.862 120.69 399.95 120.75 399.053 120.75C394.431 120.75 390.154 119.207 386.819 116.285C382.87 112.843 380.702 107.889 380.702 102.341V67.3765C380.702 55.8801 390.139 45.3182 401.73 43.8496L447.151 38.094C449.08 37.8418 450.92 38.3758 452.281 39.5625C453.642 40.7493 454.389 42.4552 454.389 44.354C454.389 48.2702 451.189 51.86 447.241 52.3495L401.775 58.1052C398.096 58.5799 395.089 61.9324 395.089 65.5816V72.2421L437.115 66.9018L437.1 66.9167Z" fill="url(#paint0_linear_917_3422)"/>
</g>
<defs>
<linearGradient id="paint0_linear_917_3422" x1="483" y1="90.3483" x2="355.681" y2="90.3483" gradientUnits="userSpaceOnUse">
<stop offset="0.0001" stop-color="#00E6E6"/>
<stop offset="0.401042" stop-color="#0FEAF8"/>
<stop offset="0.609375" stop-color="#0AD8F5"/>
<stop offset="1" stop-color="#00B6F0"/>
</linearGradient>
<clipPath id="clip0_917_3422">
<rect width="483" height="165" fill="white"/>
</clipPath>
</defs>
</svg>
