<svg width="149" height="53" viewBox="0 0 149 53" fill="none" xmlns="http://www.w3.org/2000/svg">
<g clip-path="url(#clip0_1107_5266)">
<path d="M25.5618 24.7765H18.6797C17.2755 24.7765 16.1706 25.253 15.3567 26.202C14.5428 27.1509 14.138 28.4552 14.138 30.1107C14.138 31.7661 14.5428 33.0704 15.3567 34.0193C16.1706 34.9683 17.2755 35.4448 18.6797 35.4448H25.5618V39.3201H17.946C15.1417 39.3201 12.953 38.5425 11.3843 36.9874C9.81561 35.4323 9.03125 33.1415 9.03125 30.119C9.03125 27.0966 9.81561 24.8057 11.3843 23.2506C12.953 21.6955 15.1417 20.918 17.946 20.918H25.5618V24.7932V24.7765Z" fill="#6C747F"/>
<path d="M29.7363 39.3123V13.5527H34.5479V39.3123H29.7363Z" fill="#6C747F"/>
<path d="M51.7662 27.4608C51.7662 27.1097 51.7198 26.7544 51.6312 26.4032C51.5427 26.052 51.3824 25.7427 51.1463 25.4752C50.9144 25.2118 50.5939 24.9944 50.1932 24.8314C49.7926 24.6642 49.2782 24.5847 48.6583 24.5847H39.305V20.9102H50.092C50.7583 20.9102 51.471 21.0188 52.23 21.2404C52.9891 21.462 53.6891 21.8257 54.3343 22.3315C54.9795 22.8415 55.5151 23.5145 55.9368 24.3506C56.3585 25.1909 56.5735 26.2151 56.5735 27.4316V39.3164H43.7497C41.8774 39.3164 40.4562 38.8023 39.4737 37.7781C38.4953 36.7539 38.002 35.4203 38.002 33.79C38.002 32.9957 38.1285 32.2558 38.3857 31.5702C38.6429 30.8846 39.0098 30.2993 39.4863 29.8144C39.9671 29.3295 40.5617 28.9491 41.2743 28.6732C41.987 28.3972 42.8093 28.2593 43.7455 28.2593H51.762V27.465L51.7662 27.4608ZM51.7662 31.9297H45.5883C45.2762 31.9297 44.9768 31.9506 44.6859 31.9966C44.3949 32.0426 44.1334 32.1303 43.9015 32.2599C43.6696 32.3895 43.4798 32.5818 43.3322 32.8243C43.1888 33.0668 43.1172 33.3886 43.1172 33.7858C43.1172 34.1829 43.1888 34.5048 43.3322 34.7473C43.4756 34.9897 43.6654 35.1779 43.9015 35.3116C44.1377 35.4454 44.3949 35.5332 44.6859 35.575C44.9768 35.621 45.2762 35.6419 45.5883 35.6419H51.7662V31.9339V31.9297Z" fill="#6C747F"/>
<path d="M61.3132 30.3918C60.3349 29.3635 59.8457 28.0466 59.8457 26.433C59.8457 25.6387 59.9722 24.8988 60.2294 24.2132C60.4867 23.5276 60.8536 22.9424 61.3301 22.4575C61.8066 21.9725 62.4054 21.5921 63.1181 21.3162C63.8308 21.0403 64.6531 20.9023 65.5892 20.9023H77.4136V24.5769H67.4953C67.1832 24.5769 66.8754 24.5978 66.576 24.6438C66.2766 24.6898 66.0025 24.7776 65.7579 24.9072C65.5133 25.0409 65.3193 25.2291 65.1718 25.4715C65.0284 25.714 64.9567 26.0359 64.9567 26.433C64.9567 26.8301 65.0284 27.152 65.1718 27.3945C65.3151 27.637 65.5091 27.8209 65.7579 27.9421C66.0025 28.0634 66.2766 28.147 66.576 28.1888C66.8754 28.2348 67.1832 28.2557 67.4953 28.2557H72.6738C73.6099 28.2557 74.4322 28.3936 75.1449 28.6695C75.8576 28.9454 76.4522 29.3258 76.9329 29.8108C77.4094 30.2957 77.7805 30.8809 78.0335 31.5665C78.2908 32.2521 78.4173 32.992 78.4173 33.7863C78.4173 35.4209 77.9281 36.7502 76.9456 37.7744C75.9672 38.8028 74.5419 39.3128 72.6695 39.3128H59.8457V35.6382H70.7677C71.0797 35.6382 71.3876 35.6173 71.687 35.5714C71.9864 35.5254 72.2605 35.4376 72.5051 35.308C72.7497 35.1784 72.9436 34.9903 73.0912 34.7436C73.2346 34.5012 73.3063 34.1793 73.3063 33.7821C73.3063 33.385 73.2346 33.0673 73.0912 32.8207C72.9479 32.5782 72.7497 32.3901 72.5051 32.2563C72.2605 32.1225 71.9864 32.0347 71.687 31.9929C71.3876 31.9469 71.0797 31.926 70.7677 31.926H65.5892C63.7169 31.926 62.2958 31.4119 61.3132 30.3877V30.3918Z" fill="#6C747F"/>
<path d="M82.4363 30.3918C81.4579 29.3635 80.9688 28.0466 80.9688 26.433C80.9688 25.6387 81.0953 24.8988 81.3525 24.2132C81.6097 23.5276 81.9766 22.9424 82.4531 22.4575C82.9296 21.9725 83.5285 21.5921 84.2411 21.3162C84.9538 21.0403 85.7761 20.9023 86.7123 20.9023H98.5367V24.5769H88.6184C88.3063 24.5769 87.9985 24.5978 87.6991 24.6438C87.3996 24.6898 87.1255 24.7776 86.881 24.9072C86.6364 25.0409 86.4424 25.2291 86.2948 25.4715C86.1514 25.714 86.0797 26.0359 86.0797 26.433C86.0797 26.8301 86.1514 27.152 86.2948 27.3945C86.4382 27.637 86.6322 27.8209 86.881 27.9421C87.1255 28.0634 87.3996 28.147 87.6991 28.1888C87.9985 28.2348 88.3063 28.2557 88.6184 28.2557H93.7968C94.733 28.2557 95.5553 28.3936 96.268 28.6695C96.9806 28.9454 97.5752 29.3258 98.056 29.8108C98.5325 30.2957 98.9036 30.8809 99.1566 31.5665C99.4138 32.2521 99.5403 32.992 99.5403 33.7863C99.5403 35.4209 99.0512 36.7502 98.0686 37.7744C97.0903 38.8028 95.6649 39.3128 93.7926 39.3128H80.9688V35.6382H91.8907C92.2028 35.6382 92.5106 35.6173 92.81 35.5714C93.1094 35.5254 93.3835 35.4376 93.6281 35.308C93.8727 35.1784 94.0667 34.9903 94.2143 34.7436C94.3577 34.5012 94.4294 34.1793 94.4294 33.7821C94.4294 33.385 94.3577 33.0673 94.2143 32.8207C94.0709 32.5782 93.8727 32.3901 93.6281 32.2563C93.3835 32.1225 93.1094 32.0347 92.81 31.9929C92.5106 31.9469 92.2028 31.926 91.8907 31.926H86.7123C84.8399 31.926 83.4188 31.4119 82.4363 30.3877V30.3918Z" fill="#6C747F"/>
<path d="M131.708 8.41986L115.75 10.4475C110.538 11.1085 106.316 15.8328 106.316 20.9951V48.6356C106.316 50.1036 108.03 50.7038 109.188 49.6413L114.052 45.1846L131.708 42.9421C136.919 42.2811 141.141 37.5567 141.141 32.3944V16.5749C141.141 11.4086 136.919 7.75886 131.708 8.42392V8.41986ZM128.586 23.3675C129.118 23.2985 129.617 23.4445 129.994 23.773C130.366 24.0974 130.57 24.5638 130.57 25.0828C130.57 26.1534 129.695 27.1348 128.615 27.2727L117.095 28.7366V32.5688C117.095 33.0433 117.284 33.4691 117.623 33.7651C117.967 34.0652 118.421 34.1949 118.912 34.1341L131.335 32.5607C131.863 32.4917 132.366 32.6377 132.738 32.9621C133.111 33.2866 133.315 33.7529 133.315 34.272C133.315 35.3426 132.44 36.3239 131.36 36.4618L118.924 38.0352C118.674 38.0677 118.425 38.0839 118.18 38.0839C116.915 38.0839 115.746 37.6622 114.833 36.8633C113.753 35.9225 113.16 34.568 113.16 33.0514V23.4932C113.16 20.3504 115.741 17.463 118.912 17.0616L131.335 15.4881C131.863 15.4192 132.366 15.5652 132.738 15.8896C133.111 16.214 133.315 16.6804 133.315 17.1994C133.315 18.27 132.44 19.2514 131.36 19.3852L118.924 20.9586C117.918 21.0884 117.095 22.0049 117.095 23.0025V24.8233L128.59 23.3634L128.586 23.3675Z" fill="#6C747F"/>
</g>
<defs>
<clipPath id="clip0_1107_5266">
<rect width="132.11" height="45.1064" fill="white" transform="translate(9.03125 5.07422)"/>
</clipPath>
</defs>
</svg>
